<svg width="164" height="19" viewBox="0 0 164 19" fill="none" xmlns="http://www.w3.org/2000/svg">
<path d="M13.8182 0.545454V18H13.2727L1.34091 1.56818H1.27273V18H0.727273V0.545454H1.27273L13.2045 16.9773H13.2727V0.545454H13.8182ZM23.7663 18.2727C22.6243 18.2727 21.6243 17.9744 20.7663 17.3778C19.9141 16.7812 19.2521 15.9716 18.7805 14.9489C18.3089 13.9261 18.0732 12.7727 18.0732 11.4886C18.0732 10.2045 18.3089 9.05114 18.7805 8.02841C19.2578 7.00568 19.9055 6.19602 20.7237 5.59943C21.5419 5.00284 22.4652 4.70454 23.4936 4.70454C24.255 4.70454 24.9595 4.86648 25.6072 5.19034C26.2607 5.5142 26.8288 5.96307 27.3118 6.53693C27.7947 7.1108 28.1697 7.77273 28.4368 8.52273C28.7095 9.26705 28.8459 10.0625 28.8459 10.9091V11.4545H18.3459V10.9091H28.3004C28.3004 9.85795 28.0845 8.90625 27.6527 8.05398C27.2209 7.19602 26.6413 6.5142 25.9141 6.00852C25.1868 5.50284 24.38 5.25 23.4936 5.25C22.5959 5.25 21.7834 5.51705 21.0561 6.05114C20.3288 6.58523 19.7464 7.3125 19.3089 8.23295C18.8714 9.15341 18.6413 10.1932 18.6186 11.3523V11.4205C18.6186 12.5625 18.8175 13.6136 19.2152 14.5739C19.6186 15.5284 20.2038 16.2926 20.9709 16.8665C21.7379 17.4403 22.6697 17.7273 23.7663 17.7273C24.5732 17.7273 25.2493 17.5852 25.7947 17.3011C26.3459 17.017 26.7862 16.6903 27.1158 16.321C27.451 15.9517 27.6982 15.6364 27.8572 15.375L28.3004 15.6818C28.1072 16.0114 27.8175 16.3778 27.4311 16.7812C27.0447 17.1847 26.5504 17.5341 25.9482 17.8295C25.3459 18.125 24.6186 18.2727 23.7663 18.2727ZM32.1868 4.90909L36.0391 10.9602L39.8913 4.90909H40.5391L36.3629 11.4545L40.5391 18H39.8913L36.0391 11.9489L32.1868 18H31.5391L35.7152 11.4545L31.5391 4.90909H32.1868ZM48.4482 4.90909V5.45454H43.2663V4.90909H48.4482ZM45.1754 1.77273H45.7209V15.2386C45.7209 15.75 45.8345 16.1903 46.0618 16.5597C46.2891 16.9233 46.5902 17.2045 46.9652 17.4034C47.3402 17.5966 47.7436 17.6932 48.1754 17.6932C48.3402 17.6932 48.4908 17.679 48.6271 17.6506C48.7692 17.6222 48.9141 17.5795 49.0618 17.5227L49.2322 18.0341C49.0618 18.0966 48.8942 18.1449 48.7294 18.179C48.5646 18.2188 48.38 18.2386 48.1754 18.2386C47.6413 18.2386 47.1442 18.1165 46.6839 17.8722C46.2294 17.6278 45.8629 17.2812 45.5845 16.8324C45.3118 16.3835 45.1754 15.8523 45.1754 15.2386V1.77273ZM53.3913 18V0.545454H58.505C59.4822 0.545454 60.3459 0.752841 61.0959 1.16761C61.8516 1.58239 62.4425 2.16193 62.8686 2.90625C63.3004 3.65057 63.5163 4.52273 63.5163 5.52273C63.5163 6.51136 63.3004 7.37784 62.8686 8.12216C62.4425 8.8608 61.8516 9.4375 61.0959 9.85227C60.3459 10.2614 59.4822 10.4659 58.505 10.4659H53.6641V9.92045H58.505C59.38 9.92045 60.1527 9.73864 60.8232 9.375C61.4936 9.01136 62.0192 8.5 62.3999 7.84091C62.7805 7.18182 62.9709 6.40909 62.9709 5.52273C62.9709 4.63068 62.7805 3.85227 62.3999 3.1875C62.0192 2.52273 61.4936 2.00852 60.8232 1.64489C60.1527 1.27557 59.38 1.09091 58.505 1.09091H53.9368V18H53.3913ZM60.0391 10.0568L64.3345 18H63.7209L59.4254 10.0568H60.0391ZM72.5163 18.2727C71.3743 18.2727 70.3743 17.9744 69.5163 17.3778C68.6641 16.7812 68.0021 15.9716 67.5305 14.9489C67.0589 13.9261 66.8232 12.7727 66.8232 11.4886C66.8232 10.2045 67.0589 9.05114 67.5305 8.02841C68.0078 7.00568 68.6555 6.19602 69.4737 5.59943C70.2919 5.00284 71.2152 4.70454 72.2436 4.70454C73.005 4.70454 73.7095 4.86648 74.3572 5.19034C75.0107 5.5142 75.5788 5.96307 76.0618 6.53693C76.5447 7.1108 76.9197 7.77273 77.1868 8.52273C77.4595 9.26705 77.5959 10.0625 77.5959 10.9091V11.4545H67.0959V10.9091H77.0504C77.0504 9.85795 76.8345 8.90625 76.4027 8.05398C75.9709 7.19602 75.3913 6.5142 74.6641 6.00852C73.9368 5.50284 73.13 5.25 72.2436 5.25C71.3459 5.25 70.5334 5.51705 69.8061 6.05114C69.0788 6.58523 68.4964 7.3125 68.0589 8.23295C67.6214 9.15341 67.3913 10.1932 67.3686 11.3523V11.4205C67.3686 12.5625 67.5675 13.6136 67.9652 14.5739C68.3686 15.5284 68.9538 16.2926 69.7209 16.8665C70.4879 17.4403 71.4197 17.7273 72.5163 17.7273C73.3232 17.7273 73.9993 17.5852 74.5447 17.3011C75.0959 17.017 75.5362 16.6903 75.8658 16.321C76.201 15.9517 76.4482 15.6364 76.6072 15.375L77.0504 15.6818C76.8572 16.0114 76.5675 16.3778 76.1811 16.7812C75.7947 17.1847 75.3004 17.5341 74.6982 17.8295C74.0959 18.125 73.3686 18.2727 72.5163 18.2727ZM89.2997 7.67045L88.7543 7.80682C88.5781 7.23864 88.331 6.76705 88.0128 6.39205C87.7003 6.01136 87.3168 5.72727 86.8622 5.53977C86.4077 5.34659 85.8793 5.25 85.277 5.25C84.2315 5.25 83.3849 5.51705 82.7372 6.05114C82.0895 6.57955 81.7656 7.27841 81.7656 8.14773C81.7656 8.83523 81.9844 9.41193 82.4219 9.87784C82.8651 10.3437 83.5327 10.6875 84.4247 10.9091L86.4702 11.4205C87.4304 11.6591 88.1577 12.0625 88.652 12.6307C89.152 13.1989 89.402 13.8864 89.402 14.6932C89.402 15.4034 89.2145 16.0284 88.8395 16.5682C88.4702 17.108 87.9588 17.5284 87.3054 17.8295C86.652 18.125 85.8963 18.2727 85.0384 18.2727C83.8736 18.2727 82.9219 17.9886 82.1832 17.4205C81.4446 16.8523 80.9645 16.0455 80.7429 15L81.2884 14.8636C81.4815 15.7898 81.8935 16.5 82.5241 16.9943C83.1605 17.483 83.9986 17.7273 85.0384 17.7273C86.1747 17.7273 87.0952 17.4489 87.7997 16.892C88.5043 16.3352 88.8565 15.6023 88.8565 14.6932C88.8565 14.017 88.6463 13.446 88.2259 12.9801C87.8054 12.5142 87.1747 12.1761 86.3338 11.9659L84.2884 11.4545C83.2827 11.2045 82.5185 10.7955 81.9957 10.2273C81.4787 9.65909 81.2202 8.96591 81.2202 8.14773C81.2202 7.46023 81.3906 6.8608 81.7315 6.34943C82.0781 5.83239 82.5554 5.42898 83.1634 5.1392C83.777 4.84943 84.4815 4.70454 85.277 4.70454C86.2884 4.70454 87.1321 4.95454 87.8082 5.45454C88.4844 5.94886 88.9815 6.6875 89.2997 7.67045ZM97.9311 18.2727C96.9027 18.2727 95.9794 17.9773 95.1612 17.3864C94.343 16.7898 93.6953 15.9801 93.218 14.9574C92.7464 13.929 92.5107 12.7727 92.5107 11.4886C92.5107 10.1989 92.7464 9.04261 93.218 8.01989C93.6953 6.99716 94.343 6.19034 95.1612 5.59943C95.9794 5.00284 96.9027 4.70454 97.9311 4.70454C98.9595 4.70454 99.88 5.00284 100.692 5.59943C101.511 6.19602 102.158 7.00568 102.636 8.02841C103.113 9.05114 103.352 10.2045 103.352 11.4886C103.352 12.7727 103.113 13.929 102.636 14.9574C102.164 15.9801 101.519 16.7898 100.701 17.3864C99.8828 17.9773 98.9595 18.2727 97.9311 18.2727ZM97.9311 17.7273C98.8572 17.7273 99.6868 17.4545 100.42 16.9091C101.158 16.3636 101.741 15.6193 102.167 14.6761C102.593 13.733 102.806 12.6705 102.806 11.4886C102.806 10.3068 102.59 9.24716 102.158 8.30966C101.732 7.36648 101.153 6.62216 100.42 6.0767C99.6868 5.52557 98.8572 5.25 97.9311 5.25C97.0107 5.25 96.1811 5.52557 95.4425 6.0767C94.7095 6.62216 94.1271 7.36648 93.6953 8.30966C93.2692 9.24716 93.0561 10.3068 93.0561 11.4886C93.0561 12.6705 93.2692 13.733 93.6953 14.6761C94.1214 15.6193 94.701 16.3636 95.4339 16.9091C96.1726 17.4545 97.005 17.7273 97.9311 17.7273ZM115.648 13.7045V4.90909H116.193V18H115.648V15.9205H115.58C115.273 16.6023 114.767 17.1477 114.062 17.5568C113.364 17.9659 112.563 18.1705 111.659 18.1705C110.784 18.1705 110.011 17.9801 109.341 17.5994C108.67 17.2187 108.145 16.6932 107.764 16.0227C107.384 15.3523 107.193 14.5795 107.193 13.7045V4.90909H107.739V13.7045C107.739 14.8636 108.102 15.8068 108.83 16.5341C109.557 17.2614 110.5 17.625 111.659 17.625C112.432 17.625 113.116 17.4574 113.713 17.1222C114.315 16.7869 114.787 16.3239 115.128 15.733C115.474 15.142 115.648 14.4659 115.648 13.7045ZM120.834 18V4.90909H121.379V6.98864H121.447C121.754 6.30682 122.257 5.76136 122.956 5.35227C123.661 4.94318 124.464 4.73864 125.368 4.73864C125.436 4.73864 125.482 4.73864 125.504 4.73864C125.527 4.73864 125.572 4.73864 125.641 4.73864V5.28409C125.572 5.28409 125.527 5.28409 125.504 5.28409C125.482 5.28409 125.436 5.28409 125.368 5.28409C124.595 5.28409 123.908 5.4517 123.305 5.78693C122.709 6.12216 122.237 6.58523 121.891 7.17614C121.55 7.76705 121.379 8.44318 121.379 9.20455V18H120.834ZM132.945 18.2727C131.888 18.2727 130.945 17.9773 130.115 17.3864C129.291 16.7898 128.641 15.9801 128.163 14.9574C127.692 13.9347 127.456 12.7784 127.456 11.4886C127.456 10.2102 127.692 9.05966 128.163 8.03693C128.635 7.00852 129.283 6.19602 130.107 5.59943C130.936 5.00284 131.882 4.70454 132.945 4.70454C133.729 4.70454 134.447 4.875 135.101 5.21591C135.76 5.55114 136.311 6.02273 136.754 6.63068C137.197 7.23295 137.484 7.93182 137.615 8.72727H137.036C136.859 7.69886 136.391 6.86364 135.629 6.22159C134.874 5.57386 133.979 5.25 132.945 5.25C132.007 5.25 131.163 5.52273 130.413 6.06818C129.669 6.60795 129.081 7.34943 128.649 8.29261C128.217 9.23011 128.001 10.2955 128.001 11.4886C128.001 12.6477 128.209 13.6989 128.624 14.642C129.044 15.5852 129.626 16.3352 130.371 16.892C131.115 17.4489 131.973 17.7273 132.945 17.7273C133.643 17.7273 134.286 17.5824 134.871 17.2926C135.456 16.9972 135.942 16.5824 136.328 16.0483C136.72 15.5142 136.967 14.892 137.07 14.1818H137.649C137.524 15.0057 137.24 15.7244 136.797 16.3381C136.354 16.9517 135.8 17.429 135.135 17.7699C134.47 18.1051 133.74 18.2727 132.945 18.2727ZM146.415 18.2727C145.273 18.2727 144.273 17.9744 143.415 17.3778C142.563 16.7812 141.901 15.9716 141.429 14.9489C140.957 13.9261 140.722 12.7727 140.722 11.4886C140.722 10.2045 140.957 9.05114 141.429 8.02841C141.906 7.00568 142.554 6.19602 143.372 5.59943C144.19 5.00284 145.114 4.70454 146.142 4.70454C146.903 4.70454 147.608 4.86648 148.256 5.19034C148.909 5.5142 149.477 5.96307 149.96 6.53693C150.443 7.1108 150.818 7.77273 151.085 8.52273C151.358 9.26705 151.494 10.0625 151.494 10.9091V11.4545H140.994V10.9091H150.949C150.949 9.85795 150.733 8.90625 150.301 8.05398C149.869 7.19602 149.29 6.5142 148.562 6.00852C147.835 5.50284 147.028 5.25 146.142 5.25C145.244 5.25 144.432 5.51705 143.705 6.05114C142.977 6.58523 142.395 7.3125 141.957 8.23295C141.52 9.15341 141.29 10.1932 141.267 11.3523V11.4205C141.267 12.5625 141.466 13.6136 141.864 14.5739C142.267 15.5284 142.852 16.2926 143.619 16.8665C144.386 17.4403 145.318 17.7273 146.415 17.7273C147.222 17.7273 147.898 17.5852 148.443 17.3011C148.994 17.017 149.435 16.6903 149.764 16.321C150.099 15.9517 150.347 15.6364 150.506 15.375L150.949 15.6818C150.756 16.0114 150.466 16.3778 150.08 16.7812C149.693 17.1847 149.199 17.5341 148.597 17.8295C147.994 18.125 147.267 18.2727 146.415 18.2727ZM158.016 12.8182V11.625C158.016 11.1023 158.087 10.6392 158.229 10.2358C158.371 9.83239 158.61 9.44602 158.945 9.0767C159.286 8.70739 159.749 8.31818 160.335 7.90909C160.914 7.5 161.369 7.12216 161.698 6.77557C162.033 6.4233 162.269 6.07102 162.406 5.71875C162.548 5.3608 162.619 4.97727 162.619 4.56818C162.619 3.84659 162.448 3.20739 162.107 2.65057C161.766 2.08807 161.3 1.64773 160.71 1.32954C160.124 1.01136 159.465 0.852272 158.732 0.852272C157.96 0.852272 157.269 1.03125 156.661 1.3892C156.059 1.74148 155.582 2.22443 155.229 2.83807C154.883 3.44602 154.71 4.13636 154.71 4.90909H154.164C154.164 4.03409 154.363 3.25 154.761 2.55682C155.158 1.86364 155.701 1.31534 156.388 0.911931C157.082 0.508522 157.863 0.306818 158.732 0.306818C159.567 0.306818 160.317 0.491477 160.982 0.860795C161.653 1.23011 162.184 1.73579 162.576 2.37784C162.968 3.0142 163.164 3.74432 163.164 4.56818C163.164 5.04545 163.082 5.48864 162.917 5.89773C162.758 6.30114 162.494 6.69886 162.124 7.09091C161.755 7.48295 161.261 7.90341 160.641 8.35227C160.102 8.74432 159.678 9.10227 159.371 9.42614C159.07 9.74432 158.86 10.0767 158.741 10.4233C158.621 10.7642 158.562 11.1648 158.562 11.625V12.8182H158.016ZM158.289 18.1023C158.119 18.1023 157.974 18.0426 157.854 17.9233C157.735 17.804 157.675 17.6591 157.675 17.4886C157.675 17.3182 157.735 17.1733 157.854 17.054C157.974 16.9347 158.119 16.875 158.289 16.875C158.46 16.875 158.604 16.9347 158.724 17.054C158.843 17.1733 158.903 17.3182 158.903 17.4886C158.903 17.6023 158.874 17.7074 158.817 17.804C158.766 17.8949 158.692 17.9659 158.596 18.017C158.505 18.0739 158.403 18.1023 158.289 18.1023Z" fill="white"/>
</svg>
